<?xml version="1.0" encoding="UTF-8"?>
<svg xmlns="http://www.w3.org/2000/svg" xmlns:xlink="http://www.w3.org/1999/xlink" width="55px" height="55px" viewBox="0 0 55 55" version="1.1">
<g id="surface1">
<path style=" stroke:none;fill-rule:nonzero;fill:rgb(0.784314%,38.823529%,69.803922%);fill-opacity:1;" d="M 55 27.5 C 55 42.6875 42.6875 55 27.5 55 C 12.3125 55 0 42.6875 0 27.5 C 0 12.3125 12.3125 0 27.5 0 C 42.6875 0 55 12.3125 55 27.5 Z M 55 27.5 "/>
<path style=" stroke:none;fill-rule:evenodd;fill:rgb(100%,100%,100%);fill-opacity:1;" d="M 17.269531 11.925781 C 17.269531 12.261719 17.554688 12.53125 17.90625 12.53125 L 18.96875 12.53125 C 19.671875 12.53125 20.242188 13.070312 20.242188 13.738281 L 20.242188 18.5625 C 20.242188 19.226562 19.671875 19.769531 18.96875 19.769531 L 13.871094 19.769531 C 13.167969 19.769531 12.597656 19.226562 12.597656 18.5625 L 12.597656 13.738281 C 12.597656 13.070312 13.167969 12.53125 13.871094 12.53125 L 14.933594 12.53125 C 15.285156 12.53125 15.570312 12.261719 15.570312 11.925781 C 15.570312 11.59375 15.285156 11.324219 14.933594 11.324219 L 13.871094 11.324219 C 12.464844 11.324219 11.324219 12.402344 11.324219 13.738281 L 11.324219 18.5625 C 11.324219 19.894531 12.464844 20.972656 13.871094 20.972656 L 18.96875 20.972656 C 20.375 20.972656 21.515625 19.894531 21.515625 18.5625 L 21.515625 13.738281 C 21.515625 12.402344 20.375 11.324219 18.96875 11.324219 L 17.90625 11.324219 C 17.554688 11.324219 17.269531 11.59375 17.269531 11.925781 Z M 17.269531 11.925781 "/>
<path style=" stroke:none;fill-rule:evenodd;fill:rgb(100%,100%,100%);fill-opacity:1;" d="M 30.855469 12.53125 L 25.761719 12.53125 C 25.058594 12.53125 24.488281 13.070312 24.488281 13.738281 L 24.488281 18.5625 C 24.488281 19.226562 25.058594 19.769531 25.761719 19.769531 L 30.855469 19.769531 C 31.558594 19.769531 32.128906 19.226562 32.128906 18.5625 L 32.128906 13.738281 C 32.128906 13.070312 31.558594 12.53125 30.855469 12.53125 Z M 25.761719 11.324219 C 24.355469 11.324219 23.214844 12.402344 23.214844 13.738281 L 23.214844 18.5625 C 23.214844 19.894531 24.355469 20.972656 25.761719 20.972656 L 30.855469 20.972656 C 32.265625 20.972656 33.40625 19.894531 33.40625 18.5625 L 33.40625 13.738281 C 33.40625 12.402344 32.265625 11.324219 30.855469 11.324219 Z M 25.761719 11.324219 "/>
<path style=" stroke:none;fill-rule:evenodd;fill:rgb(100%,100%,100%);fill-opacity:1;" d="M 37.652344 12.53125 L 42.746094 12.53125 C 43.449219 12.53125 44.019531 13.070312 44.019531 13.738281 L 44.019531 18.5625 C 44.019531 19.226562 43.449219 19.769531 42.746094 19.769531 L 41.683594 19.769531 C 41.332031 19.769531 41.046875 20.039062 41.046875 20.371094 C 41.046875 20.703125 41.332031 20.972656 41.683594 20.972656 L 42.746094 20.972656 C 44.152344 20.972656 45.292969 19.894531 45.292969 18.5625 L 45.292969 13.738281 C 45.292969 12.402344 44.152344 11.324219 42.746094 11.324219 L 37.652344 11.324219 C 36.242188 11.324219 35.101562 12.402344 35.101562 13.738281 L 35.101562 18.5625 C 35.101562 19.894531 36.242188 20.972656 37.652344 20.972656 L 38.710938 20.972656 C 39.0625 20.972656 39.347656 20.703125 39.347656 20.371094 C 39.347656 20.039062 39.0625 19.769531 38.710938 19.769531 L 37.652344 19.769531 C 36.945312 19.769531 36.375 19.226562 36.375 18.5625 L 36.375 13.738281 C 36.375 13.070312 36.945312 12.53125 37.652344 12.53125 Z M 37.652344 12.53125 "/>
<path style=" stroke:none;fill-rule:evenodd;fill:rgb(100%,100%,100%);fill-opacity:1;" d="M 18.992188 14.515625 C 19.242188 14.75 19.242188 15.132812 18.992188 15.371094 L 15.996094 18.207031 L 14.269531 16.574219 C 14.019531 16.339844 14.019531 15.957031 14.269531 15.722656 C 14.519531 15.488281 14.921875 15.488281 15.171875 15.722656 L 15.996094 16.503906 L 18.09375 14.515625 C 18.339844 14.28125 18.742188 14.28125 18.992188 14.515625 Z M 18.992188 14.515625 "/>
<path style=" stroke:none;fill-rule:evenodd;fill:rgb(100%,100%,100%);fill-opacity:1;" d="M 23 23.992188 C 23 22.878906 23.953125 21.980469 25.125 21.980469 C 26.296875 21.980469 27.246094 22.878906 27.246094 23.992188 L 27.246094 26.804688 L 27.882812 26.804688 C 28.953125 26.804688 29.855469 27.484375 30.132812 28.414062 L 30.855469 28.414062 C 31.925781 28.414062 32.828125 29.09375 33.105469 30.023438 L 33.828125 30.023438 C 35.117188 30.023438 36.164062 31.011719 36.164062 32.234375 L 36.164062 40.3125 L 35.738281 43.53125 L 35.738281 46.910156 L 22.578125 46.910156 L 22.578125 43.695312 L 20.027344 40.476562 L 20.027344 37.863281 C 20.027344 37.53125 20.3125 37.261719 20.664062 37.261719 C 21.015625 37.261719 21.300781 37.53125 21.300781 37.863281 L 21.300781 40.074219 L 23.851562 43.292969 L 23.851562 45.707031 L 34.464844 45.707031 L 34.464844 43.457031 L 34.890625 40.238281 L 34.890625 32.234375 C 34.890625 31.679688 34.414062 31.230469 33.828125 31.230469 L 33.191406 31.230469 L 33.191406 34.847656 C 33.191406 35.179688 32.90625 35.449219 32.554688 35.449219 C 32.203125 35.449219 31.917969 35.179688 31.917969 34.847656 L 31.917969 30.625 C 31.917969 30.070312 31.441406 29.621094 30.855469 29.621094 L 30.21875 29.621094 L 30.21875 34.847656 C 30.21875 35.179688 29.933594 35.449219 29.582031 35.449219 C 29.230469 35.449219 28.945312 35.179688 28.945312 34.847656 L 28.945312 29.015625 C 28.945312 28.460938 28.46875 28.011719 27.882812 28.011719 L 27.246094 28.011719 L 27.246094 34.847656 C 27.246094 35.179688 26.960938 35.449219 26.609375 35.449219 C 26.257812 35.449219 25.972656 35.179688 25.972656 34.847656 L 25.972656 23.992188 C 25.972656 23.546875 25.59375 23.1875 25.125 23.1875 C 24.65625 23.1875 24.273438 23.546875 24.273438 23.992188 L 24.273438 36.253906 C 24.273438 36.589844 23.988281 36.859375 23.636719 36.859375 C 23.285156 36.859375 23 36.589844 23 36.253906 L 23 32.03125 L 22.363281 32.03125 C 21.777344 32.03125 21.300781 32.484375 21.300781 33.039062 L 21.300781 35.449219 C 21.300781 35.785156 21.015625 36.054688 20.664062 36.054688 C 20.3125 36.054688 20.027344 35.785156 20.027344 35.449219 L 20.027344 33.039062 C 20.027344 31.816406 21.074219 30.828125 22.363281 30.828125 L 23 30.828125 Z M 23 23.992188 "/>
</g>
</svg>
