<?xml version="1.0" encoding="UTF-8"?>
<svg xmlns="http://www.w3.org/2000/svg" xmlns:xlink="http://www.w3.org/1999/xlink" width="55px" height="55px" viewBox="0 0 55 55" version="1.1">
<g id="surface1">
<path style=" stroke:none;fill-rule:nonzero;fill:rgb(0.784314%,38.823529%,69.803922%);fill-opacity:1;" d="M 55 27.5 C 55 42.6875 42.6875 55 27.5 55 C 12.3125 55 0 42.6875 0 27.5 C 0 12.3125 12.3125 0 27.5 0 C 42.6875 0 55 12.3125 55 27.5 Z M 55 27.5 "/>
<path style=" stroke:none;fill-rule:evenodd;fill:rgb(100%,100%,100%);fill-opacity:1;" d="M 39.988281 34.980469 C 41.183594 33.5 42.085938 31.796875 42.636719 29.957031 C 43.335938 27.636719 43.457031 25.179688 42.988281 22.800781 C 42.515625 20.425781 41.472656 18.199219 39.949219 16.324219 C 38.425781 14.449219 36.464844 12.984375 34.242188 12.058594 C 32.023438 11.128906 29.609375 10.769531 27.21875 11.003906 C 24.824219 11.242188 22.527344 12.070312 20.53125 13.417969 C 18.53125 14.765625 16.894531 16.589844 15.761719 18.726562 C 14.863281 20.421875 14.304688 22.269531 14.109375 24.167969 C 14.105469 24.234375 14.121094 24.289062 14.171875 24.34375 C 14.230469 24.402344 14.324219 24.449219 14.441406 24.449219 L 27.976562 24.449219 C 28.730469 24.449219 29.453125 24.75 29.988281 25.289062 L 39.558594 34.945312 C 39.644531 35.027344 39.742188 35.0625 39.824219 35.058594 C 39.898438 35.058594 39.949219 35.03125 39.988281 34.980469 Z M 40.933594 35.757812 C 40.367188 36.460938 39.332031 36.453125 38.699219 35.816406 L 29.125 26.160156 C 28.820312 25.851562 28.410156 25.679688 27.976562 25.679688 L 14.441406 25.679688 C 13.542969 25.679688 12.808594 24.941406 12.898438 24.042969 C 13.109375 21.984375 13.714844 19.984375 14.6875 18.148438 C 15.914062 15.832031 17.6875 13.855469 19.851562 12.398438 C 22.019531 10.9375 24.507812 10.039062 27.097656 9.78125 C 29.691406 9.523438 32.304688 9.917969 34.710938 10.921875 C 37.117188 11.925781 39.238281 13.515625 40.890625 15.546875 C 42.542969 17.574219 43.671875 19.984375 44.179688 22.5625 C 44.6875 25.136719 44.558594 27.800781 43.804688 30.316406 C 43.207031 32.304688 42.230469 34.152344 40.933594 35.757812 Z M 40.933594 35.757812 "/>
<path style=" stroke:none;fill-rule:evenodd;fill:rgb(100%,100%,100%);fill-opacity:1;" d="M 10.925781 29.707031 C 11.070312 31.125 11.417969 32.519531 11.960938 33.839844 C 12.695312 35.628906 13.773438 37.253906 15.128906 38.625 C 16.488281 39.992188 18.097656 41.078125 19.871094 41.820312 C 21.183594 42.367188 22.5625 42.71875 23.96875 42.867188 C 24.03125 42.871094 24.089844 42.855469 24.140625 42.800781 C 24.199219 42.746094 24.246094 42.652344 24.246094 42.535156 L 24.246094 29.835938 C 24.246094 29.609375 24.066406 29.425781 23.839844 29.425781 L 11.253906 29.425781 C 11.136719 29.425781 11.042969 29.476562 10.988281 29.535156 C 10.9375 29.585938 10.917969 29.644531 10.925781 29.707031 Z M 9.714844 29.835938 C 9.621094 28.933594 10.359375 28.199219 11.253906 28.199219 L 23.839844 28.199219 C 24.738281 28.199219 25.464844 28.933594 25.464844 29.835938 L 25.464844 42.535156 C 25.464844 43.4375 24.734375 44.179688 23.84375 44.085938 C 22.320312 43.929688 20.824219 43.550781 19.40625 42.957031 C 17.484375 42.152344 15.738281 40.976562 14.269531 39.492188 C 12.796875 38.011719 11.632812 36.25 10.835938 34.3125 C 10.246094 32.878906 9.871094 31.371094 9.714844 29.835938 Z M 9.714844 29.835938 "/>
<path style=" stroke:none;fill-rule:evenodd;fill:rgb(100%,100%,100%);fill-opacity:1;" d="M 29.917969 44.035156 C 31.582031 43.894531 33.210938 43.46875 34.738281 42.769531 C 36.261719 42.070312 37.65625 41.117188 38.855469 39.945312 L 29.917969 32.050781 Z M 29.511719 45.292969 C 29.066406 45.316406 28.699219 44.949219 28.699219 44.496094 L 28.699219 31.148438 C 28.699219 30.445312 29.523438 30.066406 30.046875 30.53125 L 40.003906 39.324219 C 40.339844 39.621094 40.375 40.140625 40.0625 40.464844 C 38.683594 41.898438 37.046875 43.0625 35.242188 43.886719 C 33.433594 44.714844 31.488281 45.191406 29.511719 45.292969 Z M 29.511719 45.292969 "/>
<path style=" stroke:none;fill-rule:evenodd;fill:rgb(100%,100%,100%);fill-opacity:1;" d="M 17.6875 33.050781 C 17.914062 33.050781 18.09375 32.867188 18.09375 32.640625 C 18.09375 32.414062 17.914062 32.230469 17.6875 32.230469 C 17.464844 32.230469 17.28125 32.414062 17.28125 32.640625 C 17.28125 32.867188 17.464844 33.050781 17.6875 33.050781 Z M 17.6875 34.277344 C 18.585938 34.277344 19.3125 33.546875 19.3125 32.640625 C 19.3125 31.734375 18.585938 31.003906 17.6875 31.003906 C 16.792969 31.003906 16.0625 31.734375 16.0625 32.640625 C 16.0625 33.546875 16.792969 34.277344 17.6875 34.277344 Z M 17.6875 34.277344 "/>
<path style=" stroke:none;fill-rule:evenodd;fill:rgb(100%,100%,100%);fill-opacity:1;" d="M 20.9375 37.144531 C 21.160156 37.144531 21.34375 36.960938 21.34375 36.738281 C 21.34375 36.511719 21.160156 36.328125 20.9375 36.328125 C 20.710938 36.328125 20.53125 36.511719 20.53125 36.738281 C 20.53125 36.960938 20.710938 37.144531 20.9375 37.144531 Z M 20.9375 38.375 C 21.832031 38.375 22.558594 37.640625 22.558594 36.738281 C 22.558594 35.832031 21.832031 35.097656 20.9375 35.097656 C 20.039062 35.097656 19.3125 35.832031 19.3125 36.738281 C 19.3125 37.640625 20.039062 38.375 20.9375 38.375 Z M 20.9375 38.375 "/>
<path style=" stroke:none;fill-rule:evenodd;fill:rgb(100%,100%,100%);fill-opacity:1;" d="M 21.773438 32.207031 C 22.011719 32.445312 22.011719 32.835938 21.773438 33.074219 L 17.710938 37.171875 C 17.476562 37.410156 17.089844 37.410156 16.851562 37.171875 C 16.613281 36.929688 16.613281 36.542969 16.851562 36.300781 L 20.910156 32.207031 C 21.148438 31.964844 21.535156 31.964844 21.773438 32.207031 Z M 21.773438 32.207031 "/>
<path style=" stroke:none;fill-rule:evenodd;fill:rgb(100%,100%,100%);fill-opacity:1;" d="M 20.328125 19.945312 C 20.328125 19.605469 20.601562 19.332031 20.9375 19.332031 L 26.214844 19.332031 C 26.550781 19.332031 26.824219 19.605469 26.824219 19.945312 C 26.824219 20.285156 26.550781 20.558594 26.214844 20.558594 L 20.9375 20.558594 C 20.601562 20.558594 20.328125 20.285156 20.328125 19.945312 Z M 20.328125 21.582031 C 20.328125 21.242188 20.601562 20.96875 20.9375 20.96875 L 27.027344 20.96875 C 27.363281 20.96875 27.636719 21.242188 27.636719 21.582031 C 27.636719 21.921875 27.363281 22.199219 27.027344 22.199219 L 20.9375 22.199219 C 20.601562 22.199219 20.328125 21.921875 20.328125 21.582031 Z M 20.328125 21.582031 "/>
<path style=" stroke:none;fill-rule:nonzero;fill:rgb(100%,100%,100%);fill-opacity:1;" d="M 21.503906 17.691406 C 21.503906 18.03125 21.230469 18.304688 20.894531 18.304688 C 20.558594 18.304688 20.285156 18.03125 20.285156 17.691406 C 20.285156 17.351562 20.558594 17.078125 20.894531 17.078125 C 21.230469 17.078125 21.503906 17.351562 21.503906 17.691406 Z M 21.503906 17.691406 "/>
<path style=" stroke:none;fill-rule:nonzero;fill:rgb(100%,100%,100%);fill-opacity:1;" d="M 22.964844 17.691406 C 22.964844 18.03125 22.695312 18.304688 22.355469 18.304688 C 22.019531 18.304688 21.75 18.03125 21.75 17.691406 C 21.75 17.351562 22.019531 17.078125 22.355469 17.078125 C 22.695312 17.078125 22.964844 17.351562 22.964844 17.691406 Z M 22.964844 17.691406 "/>
</g>
</svg>
