<?xml version="1.0" encoding="UTF-8"?>
<svg xmlns="http://www.w3.org/2000/svg" xmlns:xlink="http://www.w3.org/1999/xlink" width="55px" height="55px" viewBox="0 0 55 55" version="1.1">
<g id="surface1">
<path style=" stroke:none;fill-rule:nonzero;fill:rgb(0.784314%,38.823529%,69.803922%);fill-opacity:1;" d="M 55 27.5 C 55 42.6875 42.6875 55 27.5 55 C 12.3125 55 0 42.6875 0 27.5 C 0 12.3125 12.3125 0 27.5 0 C 42.6875 0 55 12.3125 55 27.5 Z M 55 27.5 "/>
<path style=" stroke:none;fill-rule:nonzero;fill:rgb(100%,100%,100%);fill-opacity:1;" d="M 39.476562 38.6875 C 39.476562 39.074219 39.164062 39.382812 38.78125 39.382812 C 38.398438 39.382812 38.085938 39.074219 38.085938 38.6875 C 38.085938 38.304688 38.398438 37.992188 38.78125 37.992188 C 39.164062 37.992188 39.476562 38.304688 39.476562 38.6875 Z M 39.476562 38.6875 "/>
<path style=" stroke:none;fill-rule:evenodd;fill:rgb(100%,100%,100%);fill-opacity:1;" d="M 42.601562 14.835938 C 42.105469 14.339844 41.300781 14.339844 40.804688 14.835938 L 40.09375 15.542969 L 39.109375 16.53125 L 37.773438 17.863281 L 27.3125 28.324219 C 26.808594 28.828125 25.992188 28.828125 25.488281 28.324219 L 22.660156 25.5 C 22.164062 25.003906 21.359375 25.003906 20.863281 25.5 C 20.367188 25.996094 20.367188 26.800781 20.863281 27.300781 L 25.179688 31.617188 C 25.855469 32.289062 26.945312 32.289062 27.621094 31.617188 L 38.203125 21.03125 L 42.601562 16.632812 C 43.097656 16.136719 43.097656 15.332031 42.601562 14.835938 Z M 39.820312 13.851562 C 40.859375 12.8125 42.546875 12.8125 43.585938 13.851562 C 44.625 14.890625 44.625 16.578125 43.585938 17.617188 L 28.605469 32.597656 C 27.386719 33.816406 25.414062 33.816406 24.195312 32.597656 L 19.878906 28.28125 C 18.839844 27.242188 18.839844 25.558594 19.878906 24.515625 C 20.917969 23.476562 22.605469 23.476562 23.644531 24.515625 L 26.398438 27.269531 Z M 39.820312 13.851562 "/>
<path style=" stroke:none;fill-rule:evenodd;fill:rgb(100%,100%,100%);fill-opacity:1;" d="M 19.945312 39.199219 C 23.050781 40.941406 26.695312 41.445312 30.152344 40.621094 C 33.613281 39.792969 36.632812 37.691406 38.613281 34.738281 C 40.59375 31.78125 41.386719 28.1875 40.835938 24.675781 C 40.578125 23.019531 40.03125 21.441406 39.230469 20.003906 L 38.203125 21.03125 C 38.820312 22.230469 39.25 23.535156 39.460938 24.890625 C 39.957031 28.058594 39.242188 31.296875 37.457031 33.960938 C 35.671875 36.625 32.949219 38.519531 29.828125 39.265625 C 26.710938 40.011719 23.425781 39.554688 20.628906 37.988281 C 17.828125 36.417969 15.726562 33.855469 14.734375 30.804688 C 13.816406 27.976562 13.917969 24.921875 15.007812 22.167969 C 15.148438 21.8125 14.996094 21.398438 14.648438 21.238281 C 14.300781 21.078125 13.886719 21.230469 13.742188 21.585938 C 12.507812 24.65625 12.386719 28.070312 13.410156 31.234375 C 14.511719 34.617188 16.84375 37.460938 19.945312 39.199219 Z M 36.785156 18.851562 C 36.195312 18.125 35.523438 17.457031 34.78125 16.867188 C 32.265625 14.875 29.09375 13.90625 25.894531 14.148438 C 24.628906 14.246094 23.390625 14.527344 22.226562 14.984375 C 21.871094 15.125 21.457031 14.96875 21.300781 14.621094 C 21.140625 14.269531 21.292969 13.855469 21.652344 13.714844 C 22.964844 13.195312 24.359375 12.871094 25.789062 12.761719 C 29.335938 12.492188 32.855469 13.566406 35.644531 15.773438 C 36.429688 16.398438 37.144531 17.101562 37.773438 17.863281 Z M 36.785156 18.851562 "/>
<path style=" stroke:none;fill-rule:evenodd;fill:rgb(100%,100%,100%);fill-opacity:1;" d="M 38.351562 13.839844 C 35.015625 11.007812 30.738281 9.539062 26.367188 9.722656 C 22 9.902344 17.859375 11.726562 14.773438 14.824219 C 11.6875 17.925781 9.882812 22.074219 9.71875 26.441406 C 9.554688 30.8125 11.042969 35.085938 13.886719 38.40625 C 16.730469 41.730469 20.722656 43.855469 25.066406 44.367188 C 29.179688 44.847656 33.324219 43.847656 36.753906 41.558594 C 37.074219 41.34375 37.140625 40.90625 36.914062 40.597656 C 36.6875 40.285156 36.253906 40.21875 35.933594 40.429688 C 32.789062 42.515625 28.996094 43.425781 25.230469 42.984375 C 21.234375 42.515625 17.5625 40.558594 14.945312 37.503906 C 12.328125 34.445312 10.957031 30.515625 11.109375 26.496094 C 11.257812 22.476562 12.917969 18.660156 15.757812 15.808594 C 18.597656 12.957031 22.40625 11.277344 26.425781 11.109375 C 30.445312 10.941406 34.382812 12.296875 37.449219 14.898438 C 38.042969 15.40625 38.597656 15.949219 39.109375 16.53125 L 40.09375 15.542969 C 39.554688 14.9375 38.972656 14.367188 38.351562 13.839844 Z M 41.578125 17.46875 C 41.601562 17.503906 41.628906 17.542969 41.652344 17.582031 L 40.644531 18.589844 C 41.886719 20.566406 42.691406 22.804688 42.976562 25.160156 C 43.433594 28.925781 42.542969 32.722656 40.46875 35.878906 C 40.257812 36.199219 40.328125 36.632812 40.636719 36.855469 C 40.949219 37.082031 41.386719 37.011719 41.597656 36.691406 C 43.875 33.25 44.859375 29.105469 44.359375 24.992188 C 44.027344 22.28125 43.066406 19.707031 41.578125 17.46875 Z M 41.578125 17.46875 "/>
</g>
</svg>
